<mxfile host="app.diagrams.net" modified="2023-03-06T21:31:49.854Z" agent="5.0 (X11; Ubuntu)" etag="gRCpp-pY09NNGlj1t-3C" version="21.0.2" type="github">
  <diagram name="Page-1" id="e7e014a7-5840-1c2e-5031-d8a46d1fe8dd">
    <mxGraphModel dx="1600" dy="751" grid="1" gridSize="10" guides="1" tooltips="1" connect="1" arrows="1" fold="1" page="1" pageScale="1" pageWidth="1169" pageHeight="826" background="none" math="0" shadow="0">
      <root>
        <mxCell id="0" />
        <mxCell id="1" parent="0" />
        <mxCell id="2" value="Thread 1" style="swimlane;whiteSpace=wrap" parent="1" vertex="1">
          <mxGeometry x="164.5" y="128" width="285.5" height="570" as="geometry" />
        </mxCell>
        <mxCell id="2AYsPokjPIX3JPCkXX3g-94" value="" style="edgeStyle=orthogonalEdgeStyle;rounded=0;orthogonalLoop=1;jettySize=auto;html=1;" parent="2" source="5" target="2AYsPokjPIX3JPCkXX3g-38" edge="1">
          <mxGeometry relative="1" as="geometry" />
        </mxCell>
        <mxCell id="5" value="" style="ellipse;shape=startState;fillColor=#000000;strokeColor=#ff0000;" parent="2" vertex="1">
          <mxGeometry x="100" y="40" width="30" height="30" as="geometry" />
        </mxCell>
        <mxCell id="LdhuR25lk1DsIXaJExgV-69" style="edgeStyle=orthogonalEdgeStyle;rounded=0;orthogonalLoop=1;jettySize=auto;html=1;exitX=0;exitY=0.5;exitDx=0;exitDy=0;entryX=-0.005;entryY=0.56;entryDx=0;entryDy=0;entryPerimeter=0;strokeColor=#FF0000;" parent="2" edge="1">
          <mxGeometry relative="1" as="geometry">
            <mxPoint x="59.450000000000045" y="353" as="targetPoint" />
          </mxGeometry>
        </mxCell>
        <mxCell id="2AYsPokjPIX3JPCkXX3g-40" value="" style="edgeStyle=orthogonalEdgeStyle;rounded=0;orthogonalLoop=1;jettySize=auto;html=1;" parent="2" source="2AYsPokjPIX3JPCkXX3g-38" target="2AYsPokjPIX3JPCkXX3g-39" edge="1">
          <mxGeometry relative="1" as="geometry" />
        </mxCell>
        <mxCell id="2AYsPokjPIX3JPCkXX3g-38" value="Admin Flag" style="rounded=0;whiteSpace=wrap;html=1;" parent="2" vertex="1">
          <mxGeometry x="57.5" y="122" width="115" height="38" as="geometry" />
        </mxCell>
        <mxCell id="2AYsPokjPIX3JPCkXX3g-42" value="" style="edgeStyle=orthogonalEdgeStyle;rounded=0;orthogonalLoop=1;jettySize=auto;html=1;" parent="2" source="2AYsPokjPIX3JPCkXX3g-39" target="2AYsPokjPIX3JPCkXX3g-41" edge="1">
          <mxGeometry relative="1" as="geometry" />
        </mxCell>
        <mxCell id="2AYsPokjPIX3JPCkXX3g-39" value="&lt;div&gt;Check Admin&lt;/div&gt;&lt;div&gt;Flag&lt;br&gt;&lt;/div&gt;" style="rounded=0;whiteSpace=wrap;html=1;fillColor=rgb(255, 255, 255);strokeColor=rgb(0, 0, 0);fontColor=rgb(0, 0, 0);" parent="2" vertex="1">
          <mxGeometry x="57.5" y="240" width="115" height="38" as="geometry" />
        </mxCell>
        <mxCell id="2AYsPokjPIX3JPCkXX3g-41" value="&lt;div&gt;Parse Flag&lt;/div&gt;&lt;div&gt;Origin&lt;br&gt;&lt;/div&gt;" style="rounded=0;whiteSpace=wrap;html=1;fillColor=rgb(255, 255, 255);strokeColor=rgb(0, 0, 0);fontColor=rgb(0, 0, 0);" parent="2" vertex="1">
          <mxGeometry x="57.5" y="358" width="115" height="38" as="geometry" />
        </mxCell>
        <mxCell id="3" value="Thread 2" style="swimlane;whiteSpace=wrap" parent="1" vertex="1">
          <mxGeometry x="450" y="127" width="290" height="572" as="geometry" />
        </mxCell>
        <mxCell id="2AYsPokjPIX3JPCkXX3g-46" value="" style="edgeStyle=orthogonalEdgeStyle;rounded=0;orthogonalLoop=1;jettySize=auto;html=1;" parent="3" source="2AYsPokjPIX3JPCkXX3g-43" target="2AYsPokjPIX3JPCkXX3g-45" edge="1">
          <mxGeometry relative="1" as="geometry" />
        </mxCell>
        <mxCell id="2AYsPokjPIX3JPCkXX3g-43" value="&lt;div&gt;Parse Admin&lt;/div&gt;&lt;div&gt;Flag to User&lt;br&gt;&lt;/div&gt;" style="rounded=0;whiteSpace=wrap;html=1;fillColor=rgb(255, 255, 255);strokeColor=rgb(0, 0, 0);fontColor=rgb(0, 0, 0);" parent="3" vertex="1">
          <mxGeometry x="30" y="358" width="115" height="38" as="geometry" />
        </mxCell>
        <mxCell id="2AYsPokjPIX3JPCkXX3g-69" style="edgeStyle=orthogonalEdgeStyle;rounded=0;orthogonalLoop=1;jettySize=auto;html=1;exitX=0.5;exitY=0;exitDx=0;exitDy=0;" parent="3" source="2AYsPokjPIX3JPCkXX3g-45" target="2AYsPokjPIX3JPCkXX3g-68" edge="1">
          <mxGeometry relative="1" as="geometry" />
        </mxCell>
        <mxCell id="2AYsPokjPIX3JPCkXX3g-45" value="&lt;div&gt;Flag User&lt;/div&gt;&lt;div&gt;Warning&lt;br&gt;&lt;/div&gt;" style="rounded=0;whiteSpace=wrap;html=1;fillColor=rgb(255, 255, 255);strokeColor=rgb(0, 0, 0);fontColor=rgb(0, 0, 0);" parent="3" vertex="1">
          <mxGeometry x="30" y="240" width="115" height="38" as="geometry" />
        </mxCell>
        <mxCell id="2AYsPokjPIX3JPCkXX3g-77" value="" style="edgeStyle=orthogonalEdgeStyle;rounded=0;orthogonalLoop=1;jettySize=auto;html=1;strokeColor=#CC6600;" parent="3" source="2AYsPokjPIX3JPCkXX3g-47" target="2AYsPokjPIX3JPCkXX3g-76" edge="1">
          <mxGeometry relative="1" as="geometry" />
        </mxCell>
        <mxCell id="2AYsPokjPIX3JPCkXX3g-47" value="&lt;div&gt;&lt;font color=&quot;#FFFFFF&quot;&gt;Malicious&amp;nbsp;&lt;/font&gt;&lt;/div&gt;&lt;div&gt;&lt;font color=&quot;#FFFFFF&quot;&gt;Flag&lt;br&gt;&lt;/font&gt;&lt;/div&gt;" style="rhombus;whiteSpace=wrap;html=1;fillColor=#000000;strokeColor=rgb(0, 0, 0);fontColor=rgb(0, 0, 0);rounded=0;" parent="3" vertex="1">
          <mxGeometry x="180" y="219" width="80" height="80" as="geometry" />
        </mxCell>
        <mxCell id="2AYsPokjPIX3JPCkXX3g-55" value="&lt;div&gt;Warning&lt;/div&gt;&lt;div&gt;&amp;nbsp;Flag&lt;/div&gt;" style="rhombus;whiteSpace=wrap;html=1;fillColor=#FFFF00;strokeColor=rgb(0, 0, 0);fontColor=rgb(0, 0, 0);rounded=0;" parent="3" vertex="1">
          <mxGeometry x="47.5" y="43" width="80" height="80" as="geometry" />
        </mxCell>
        <mxCell id="2AYsPokjPIX3JPCkXX3g-70" style="edgeStyle=orthogonalEdgeStyle;rounded=0;orthogonalLoop=1;jettySize=auto;html=1;exitX=0;exitY=0.5;exitDx=0;exitDy=0;entryX=0.5;entryY=1;entryDx=0;entryDy=0;strokeColor=#FF0000;" parent="3" source="2AYsPokjPIX3JPCkXX3g-68" target="2AYsPokjPIX3JPCkXX3g-55" edge="1">
          <mxGeometry relative="1" as="geometry" />
        </mxCell>
        <mxCell id="2AYsPokjPIX3JPCkXX3g-71" value="NO" style="edgeLabel;html=1;align=center;verticalAlign=middle;resizable=0;points=[];" parent="2AYsPokjPIX3JPCkXX3g-70" vertex="1" connectable="0">
          <mxGeometry x="0.1973" y="-2" relative="1" as="geometry">
            <mxPoint as="offset" />
          </mxGeometry>
        </mxCell>
        <mxCell id="2AYsPokjPIX3JPCkXX3g-73" value="YES" style="edgeStyle=orthogonalEdgeStyle;rounded=0;orthogonalLoop=1;jettySize=auto;html=1;exitX=1;exitY=0.5;exitDx=0;exitDy=0;entryX=0.5;entryY=0;entryDx=0;entryDy=0;strokeColor=#FF0000;" parent="3" source="2AYsPokjPIX3JPCkXX3g-68" target="2AYsPokjPIX3JPCkXX3g-47" edge="1">
          <mxGeometry relative="1" as="geometry" />
        </mxCell>
        <mxCell id="2AYsPokjPIX3JPCkXX3g-68" value="&lt;div&gt;Intent&lt;/div&gt;&lt;div&gt;Malicious?&lt;br&gt;&lt;/div&gt;" style="rhombus;whiteSpace=wrap;html=1;fillColor=#FF0000;" parent="3" vertex="1">
          <mxGeometry x="110" y="113" width="82.5" height="83" as="geometry" />
        </mxCell>
        <mxCell id="2AYsPokjPIX3JPCkXX3g-79" value="" style="edgeStyle=orthogonalEdgeStyle;rounded=0;orthogonalLoop=1;jettySize=auto;html=1;strokeColor=#CC6600;" parent="3" source="2AYsPokjPIX3JPCkXX3g-76" target="2AYsPokjPIX3JPCkXX3g-78" edge="1">
          <mxGeometry relative="1" as="geometry" />
        </mxCell>
        <mxCell id="2AYsPokjPIX3JPCkXX3g-99" style="edgeStyle=orthogonalEdgeStyle;rounded=0;orthogonalLoop=1;jettySize=auto;html=1;exitX=0;exitY=0.5;exitDx=0;exitDy=0;entryX=0.5;entryY=1;entryDx=0;entryDy=0;" parent="3" source="2AYsPokjPIX3JPCkXX3g-76" target="2AYsPokjPIX3JPCkXX3g-68" edge="1">
          <mxGeometry relative="1" as="geometry" />
        </mxCell>
        <mxCell id="2AYsPokjPIX3JPCkXX3g-76" value="&lt;div&gt;Access Restriction&lt;/div&gt;&lt;div&gt;Level 1&lt;br&gt;&lt;/div&gt;" style="whiteSpace=wrap;html=1;fillColor=rgb(255, 255, 255);strokeColor=rgb(0, 0, 0);fontColor=rgb(0, 0, 0);rounded=0;" parent="3" vertex="1">
          <mxGeometry x="180" y="327" width="80" height="63" as="geometry" />
        </mxCell>
        <mxCell id="2AYsPokjPIX3JPCkXX3g-100" style="edgeStyle=orthogonalEdgeStyle;rounded=0;orthogonalLoop=1;jettySize=auto;html=1;exitX=0;exitY=0.5;exitDx=0;exitDy=0;entryX=0.5;entryY=1;entryDx=0;entryDy=0;" parent="3" source="2AYsPokjPIX3JPCkXX3g-78" target="2AYsPokjPIX3JPCkXX3g-68" edge="1">
          <mxGeometry relative="1" as="geometry" />
        </mxCell>
        <mxCell id="2AYsPokjPIX3JPCkXX3g-78" value="&lt;div&gt;Access Restriction&lt;/div&gt;&lt;div&gt;Level 2&lt;br&gt;&lt;/div&gt;" style="whiteSpace=wrap;html=1;fillColor=rgb(255, 255, 255);strokeColor=rgb(0, 0, 0);fontColor=rgb(0, 0, 0);rounded=0;" parent="3" vertex="1">
          <mxGeometry x="180" y="423" width="80" height="63" as="geometry" />
        </mxCell>
        <mxCell id="4" value="Thread 3" style="swimlane;whiteSpace=wrap" parent="1" vertex="1">
          <mxGeometry x="740" y="128" width="360" height="570" as="geometry" />
        </mxCell>
        <mxCell id="38" value="" style="ellipse;shape=endState;fillColor=#000000;strokeColor=#ff0000" parent="4" vertex="1">
          <mxGeometry x="250" y="63" width="30" height="30" as="geometry" />
        </mxCell>
        <mxCell id="no-FgJv35wXuLeluLs2J-44" value="YES" style="edgeStyle=orthogonalEdgeStyle;rounded=0;orthogonalLoop=1;jettySize=auto;html=1;exitX=0.5;exitY=1;exitDx=0;exitDy=0;entryX=1;entryY=0.5;entryDx=0;entryDy=0;" parent="4" edge="1">
          <mxGeometry relative="1" as="geometry">
            <mxPoint x="320" y="350" as="targetPoint" />
          </mxGeometry>
        </mxCell>
        <mxCell id="no-FgJv35wXuLeluLs2J-45" value="NO" style="edgeStyle=orthogonalEdgeStyle;rounded=0;orthogonalLoop=1;jettySize=auto;html=1;exitX=0.5;exitY=0;exitDx=0;exitDy=0;entryX=0;entryY=0.14;entryDx=0;entryDy=0;entryPerimeter=0;" parent="4" edge="1">
          <mxGeometry relative="1" as="geometry">
            <mxPoint x="60" y="332" as="targetPoint" />
            <Array as="points">
              <mxPoint x="280" y="153" />
              <mxPoint x="20" y="153" />
              <mxPoint x="20" y="332" />
            </Array>
          </mxGeometry>
        </mxCell>
        <mxCell id="2AYsPokjPIX3JPCkXX3g-61" value="" style="edgeStyle=orthogonalEdgeStyle;rounded=0;orthogonalLoop=1;jettySize=auto;html=1;strokeColor=#CC6600;" parent="4" source="2AYsPokjPIX3JPCkXX3g-58" target="2AYsPokjPIX3JPCkXX3g-60" edge="1">
          <mxGeometry relative="1" as="geometry" />
        </mxCell>
        <mxCell id="2AYsPokjPIX3JPCkXX3g-58" value="&lt;div&gt;Increase warning &lt;br&gt;&lt;/div&gt;&lt;div&gt;Level to 1&lt;br&gt;&lt;/div&gt;" style="whiteSpace=wrap;html=1;fillColor=rgb(255, 255, 255);strokeColor=rgb(0, 0, 0);fontColor=rgb(0, 0, 0);rounded=0;" parent="4" vertex="1">
          <mxGeometry x="70" y="63" width="120" height="38" as="geometry" />
        </mxCell>
        <mxCell id="2AYsPokjPIX3JPCkXX3g-63" value="" style="edgeStyle=orthogonalEdgeStyle;rounded=0;orthogonalLoop=1;jettySize=auto;html=1;strokeColor=#CC6600;" parent="4" source="2AYsPokjPIX3JPCkXX3g-60" target="2AYsPokjPIX3JPCkXX3g-62" edge="1">
          <mxGeometry relative="1" as="geometry" />
        </mxCell>
        <mxCell id="2AYsPokjPIX3JPCkXX3g-60" value="&lt;div&gt;Increase warning &lt;br&gt;&lt;/div&gt;&lt;div&gt;Level to 2&lt;br&gt;&lt;/div&gt;" style="whiteSpace=wrap;html=1;fillColor=rgb(255, 255, 255);strokeColor=rgb(0, 0, 0);fontColor=rgb(0, 0, 0);rounded=0;" parent="4" vertex="1">
          <mxGeometry x="70" y="152" width="120" height="38" as="geometry" />
        </mxCell>
        <mxCell id="2AYsPokjPIX3JPCkXX3g-62" value="&lt;div&gt;Increase warning &lt;br&gt;&lt;/div&gt;&lt;div&gt;Level to 3&lt;br&gt;&lt;/div&gt;" style="whiteSpace=wrap;html=1;fillColor=rgb(255, 255, 255);strokeColor=rgb(0, 0, 0);fontColor=rgb(0, 0, 0);rounded=0;" parent="4" vertex="1">
          <mxGeometry x="70" y="239" width="120" height="38" as="geometry" />
        </mxCell>
        <mxCell id="2AYsPokjPIX3JPCkXX3g-83" value="" style="edgeStyle=orthogonalEdgeStyle;rounded=0;orthogonalLoop=1;jettySize=auto;html=1;" parent="4" source="2AYsPokjPIX3JPCkXX3g-80" target="2AYsPokjPIX3JPCkXX3g-82" edge="1">
          <mxGeometry relative="1" as="geometry" />
        </mxCell>
        <mxCell id="2AYsPokjPIX3JPCkXX3g-80" value="&lt;div&gt;Access Restriction&lt;/div&gt;&lt;div&gt;Level 3&lt;br&gt;&lt;/div&gt;" style="whiteSpace=wrap;html=1;fillColor=rgb(255, 255, 255);strokeColor=rgb(0, 0, 0);fontColor=rgb(0, 0, 0);rounded=0;" parent="4" vertex="1">
          <mxGeometry x="50" y="312" width="80" height="63" as="geometry" />
        </mxCell>
        <mxCell id="2AYsPokjPIX3JPCkXX3g-88" value="" style="edgeStyle=orthogonalEdgeStyle;rounded=0;orthogonalLoop=1;jettySize=auto;html=1;strokeColor=#CCCC00;" parent="4" source="2AYsPokjPIX3JPCkXX3g-82" target="2AYsPokjPIX3JPCkXX3g-87" edge="1">
          <mxGeometry relative="1" as="geometry" />
        </mxCell>
        <mxCell id="2AYsPokjPIX3JPCkXX3g-82" value="&lt;div&gt;Full User&lt;/div&gt;&lt;div&gt;Block&lt;br&gt;&lt;/div&gt;" style="whiteSpace=wrap;html=1;fillColor=rgb(255, 255, 255);strokeColor=rgb(0, 0, 0);fontColor=rgb(0, 0, 0);rounded=0;" parent="4" vertex="1">
          <mxGeometry x="50" y="452" width="80" height="63" as="geometry" />
        </mxCell>
        <mxCell id="2AYsPokjPIX3JPCkXX3g-93" value="YES" style="edgeStyle=orthogonalEdgeStyle;rounded=0;orthogonalLoop=1;jettySize=auto;html=1;exitX=0.5;exitY=0;exitDx=0;exitDy=0;entryX=0.5;entryY=1;entryDx=0;entryDy=0;strokeColor=#009900;" parent="4" source="2AYsPokjPIX3JPCkXX3g-87" target="38" edge="1">
          <mxGeometry relative="1" as="geometry" />
        </mxCell>
        <mxCell id="2AYsPokjPIX3JPCkXX3g-87" value="&lt;div&gt;Unblock&lt;/div&gt;&lt;div&gt;User?&lt;br&gt;&lt;/div&gt;" style="rhombus;whiteSpace=wrap;html=1;fillColor=#FFFF00;strokeColor=#FFFF00;fontColor=rgb(0, 0, 0);rounded=0;" parent="4" vertex="1">
          <mxGeometry x="225" y="443.5" width="80" height="80" as="geometry" />
        </mxCell>
        <mxCell id="2AYsPokjPIX3JPCkXX3g-44" value="" style="edgeStyle=orthogonalEdgeStyle;rounded=0;orthogonalLoop=1;jettySize=auto;html=1;" parent="1" source="2AYsPokjPIX3JPCkXX3g-41" target="2AYsPokjPIX3JPCkXX3g-43" edge="1">
          <mxGeometry relative="1" as="geometry" />
        </mxCell>
        <mxCell id="2AYsPokjPIX3JPCkXX3g-59" value="" style="edgeStyle=orthogonalEdgeStyle;rounded=0;orthogonalLoop=1;jettySize=auto;html=1;strokeColor=#CC6600;" parent="1" source="2AYsPokjPIX3JPCkXX3g-55" target="2AYsPokjPIX3JPCkXX3g-58" edge="1">
          <mxGeometry relative="1" as="geometry" />
        </mxCell>
        <mxCell id="2AYsPokjPIX3JPCkXX3g-64" style="edgeStyle=orthogonalEdgeStyle;rounded=0;orthogonalLoop=1;jettySize=auto;html=1;entryX=1;entryY=0.5;entryDx=0;entryDy=0;strokeColor=#FF0000;" parent="1" source="2AYsPokjPIX3JPCkXX3g-62" target="2AYsPokjPIX3JPCkXX3g-47" edge="1">
          <mxGeometry relative="1" as="geometry" />
        </mxCell>
        <mxCell id="2AYsPokjPIX3JPCkXX3g-81" value="" style="edgeStyle=orthogonalEdgeStyle;rounded=0;orthogonalLoop=1;jettySize=auto;html=1;strokeColor=#CC6600;" parent="1" source="2AYsPokjPIX3JPCkXX3g-78" target="2AYsPokjPIX3JPCkXX3g-80" edge="1">
          <mxGeometry relative="1" as="geometry">
            <Array as="points">
              <mxPoint x="760" y="581" />
              <mxPoint x="760" y="471" />
            </Array>
          </mxGeometry>
        </mxCell>
        <mxCell id="2AYsPokjPIX3JPCkXX3g-89" style="edgeStyle=orthogonalEdgeStyle;rounded=0;orthogonalLoop=1;jettySize=auto;html=1;exitX=0.5;exitY=1;exitDx=0;exitDy=0;entryX=0.5;entryY=1;entryDx=0;entryDy=0;strokeColor=#FF0000;" parent="1" source="2AYsPokjPIX3JPCkXX3g-87" target="2AYsPokjPIX3JPCkXX3g-43" edge="1">
          <mxGeometry relative="1" as="geometry" />
        </mxCell>
        <mxCell id="2AYsPokjPIX3JPCkXX3g-90" value="NO" style="edgeLabel;html=1;align=center;verticalAlign=middle;resizable=0;points=[];" parent="2AYsPokjPIX3JPCkXX3g-89" vertex="1" connectable="0">
          <mxGeometry x="-0.4881" y="1" relative="1" as="geometry">
            <mxPoint as="offset" />
          </mxGeometry>
        </mxCell>
        <mxCell id="2AYsPokjPIX3JPCkXX3g-95" style="edgeStyle=orthogonalEdgeStyle;rounded=0;orthogonalLoop=1;jettySize=auto;html=1;exitX=0;exitY=0.75;exitDx=0;exitDy=0;strokeColor=#FF0000;" parent="1" source="2AYsPokjPIX3JPCkXX3g-58" target="2AYsPokjPIX3JPCkXX3g-68" edge="1">
          <mxGeometry relative="1" as="geometry" />
        </mxCell>
        <mxCell id="2AYsPokjPIX3JPCkXX3g-96" style="edgeStyle=orthogonalEdgeStyle;rounded=0;orthogonalLoop=1;jettySize=auto;html=1;exitX=0;exitY=0.5;exitDx=0;exitDy=0;entryX=0.5;entryY=0;entryDx=0;entryDy=0;strokeColor=#FF0000;" parent="1" source="2AYsPokjPIX3JPCkXX3g-60" target="2AYsPokjPIX3JPCkXX3g-68" edge="1">
          <mxGeometry relative="1" as="geometry" />
        </mxCell>
      </root>
    </mxGraphModel>
  </diagram>
</mxfile>
